<?xml version="1.0" encoding="UTF-8" standalone="no"?>
<!DOCTYPE svg PUBLIC "-//W3C//DTD SVG 1.1//EN" "http://www.w3.org/Graphics/SVG/1.1/DTD/svg11.dtd">
<svg width="100%" height="100%" viewBox="0 0 64 64" version="1.1" xmlns="http://www.w3.org/2000/svg" xmlns:xlink="http://www.w3.org/1999/xlink" xml:space="preserve" xmlns:serif="http://www.serif.com/" style="fill-rule:evenodd;clip-rule:evenodd;stroke-linejoin:round;stroke-miterlimit:2;">
    <g transform="matrix(1.18604,0,0,1.13096,-7.73245,-6.7605)">
        <path d="M33.5,20C38.026,11 47.079,11 51.605,15.5C56.132,20 56.132,29 51.605,38C48.437,44.75 40.289,51.5 33.5,56C26.711,51.5 18.563,44.75 15.395,38C10.868,29 10.868,20 15.395,15.5C19.921,11 28.974,11 33.5,20Z" style="fill:rgb(14,219,252);"/>
        <path d="M33.5,11.845C26.718,5.403 17.28,6.729 12.111,11.867C6.389,17.556 5.445,28.907 11.148,40.284C14.661,47.705 23.48,55.28 30.95,60.231L33.5,61.921L36.05,60.231C43.522,55.279 52.343,47.701 55.858,40.272C61.556,28.917 60.614,17.558 54.889,11.867C49.72,6.729 40.282,5.403 33.5,11.845ZM33.5,20C38.026,11 47.079,11 51.605,15.5C56.132,20 56.132,29 51.605,38C48.437,44.75 40.289,51.5 33.5,56C26.711,51.5 18.563,44.75 15.395,38C10.868,29 10.868,20 15.395,15.5C19.921,11 28.974,11 33.5,20Z" style="fill:rgb(14,219,252);"/>
    </g>
</svg>
