<?xml version="1.0" encoding="UTF-8" standalone="no"?>
<!DOCTYPE svg PUBLIC "-//W3C//DTD SVG 1.1//EN" "http://www.w3.org/Graphics/SVG/1.1/DTD/svg11.dtd">
<svg width="100%" height="100%" viewBox="0 0 126 126" version="1.1" xmlns="http://www.w3.org/2000/svg" xmlns:xlink="http://www.w3.org/1999/xlink" xml:space="preserve" xmlns:serif="http://www.serif.com/" style="fill-rule:evenodd;clip-rule:evenodd;stroke-linecap:round;stroke-linejoin:round;stroke-miterlimit:1.5;">
    <g transform="matrix(1,0,0,1,-1722,0)">
        <g id="Prancheta1" transform="matrix(0.123047,0,0,0.21,1722,0)">
            <rect x="0" y="0" width="1024" height="600" style="fill:none;"/>
            <g transform="matrix(1.24601,0,0,1.24601,-130.877,22.8356)">
                <g>
                    <g transform="matrix(6.49307,0,0,3.83221,-11115.7,52.8109)">
                        <path d="M1760.31,59.473L1764.43,59.473C1764.65,58.648 1764.83,57.729 1764.86,56.548C1764.86,55.15 1763.72,54.015 1762.32,54.015C1760.92,54.015 1759.79,55.15 1759.79,56.548C1759.86,57.662 1760.05,58.617 1760.31,59.473Z" style="fill:none;stroke:rgb(14,219,252);stroke-width:0.87px;"/>
                    </g>
                    <g transform="matrix(3.97586e-16,-3.80453,6.54031,2.34655e-16,-86.3761,7000.63)">
                        <path d="M1760.31,59.473L1764.43,59.473C1764.65,58.648 1764.83,57.729 1764.86,56.548C1764.86,55.15 1763.72,54.015 1762.32,54.015C1760.92,54.015 1759.79,55.15 1759.79,56.548C1759.86,57.662 1760.05,58.617 1760.31,59.473Z" style="fill:none;stroke:rgb(14,219,252);stroke-width:0.87px;"/>
                    </g>
                    <g transform="matrix(-3.97586e-16,-3.80453,-6.54031,2.34655e-16,741.952,7000.63)">
                        <path d="M1760.31,59.473L1764.43,59.473C1764.65,58.648 1764.83,57.729 1764.86,56.548C1764.86,55.15 1763.72,54.015 1762.32,54.015C1760.92,54.015 1759.79,55.15 1759.79,56.548C1759.86,57.662 1760.05,58.617 1760.31,59.473Z" style="fill:none;stroke:rgb(14,219,252);stroke-width:0.87px;"/>
                    </g>
                    <g transform="matrix(6.49307,-4.65921e-16,-8.00957e-16,-3.83221,-11115.7,538.159)">
                        <path d="M1760.31,59.473L1764.43,59.473C1764.65,58.648 1764.83,57.729 1764.86,56.548C1764.86,55.15 1763.72,54.015 1762.32,54.015C1760.92,54.015 1759.79,55.15 1759.79,56.548C1759.86,57.662 1760.05,58.617 1760.31,59.473Z" style="fill:none;stroke:rgb(14,219,252);stroke-width:0.87px;"/>
                    </g>
                    <g>
                        <g transform="matrix(7.4673,0,0,4.37537,-12801.4,21.1701)">
                            <circle cx="1808.5" cy="56.5" r="2.5" style="fill:none;stroke:rgb(14,219,252);stroke-width:0.76px;"/>
                        </g>
                        <g transform="matrix(7.4673,0,0,4.37537,-12755.5,48.2273)">
                            <circle cx="1808.5" cy="56.5" r="2.5" style="fill:none;stroke:rgb(14,219,252);stroke-width:0.76px;"/>
                        </g>
                        <g transform="matrix(7.4673,0,0,4.37537,-12847,47.93)">
                            <circle cx="1808.5" cy="56.5" r="2.5" style="fill:none;stroke:rgb(14,219,252);stroke-width:0.76px;"/>
                        </g>
                        <g transform="matrix(7.4673,0,0,4.37537,-12801.1,74.8386)">
                            <circle cx="1808.5" cy="56.5" r="2.5" style="fill:none;stroke:rgb(14,219,252);stroke-width:0.76px;"/>
                        </g>
                    </g>
                    <g transform="matrix(9.46127,0,0,5.54371,-16371.7,-51.1927)">
                        <circle cx="1777.92" cy="65.183" r="3.268" style="fill:none;stroke:rgb(252,255,255);stroke-width:0.6px;"/>
                    </g>
                    <g transform="matrix(9.46127,0,0,5.54371,-16240.8,-51.8896)">
                        <circle cx="1777.92" cy="65.183" r="3.268" style="fill:none;stroke:rgb(252,255,255);stroke-width:0.6px;"/>
                    </g>
                    <g transform="matrix(15.0713,0,0,8.83085,-26345.6,-265.632)">
                        <circle cx="1777.92" cy="65.183" r="3.268" style="fill:none;stroke:rgb(189,3,71);stroke-width:0.37px;"/>
                    </g>
                    <g transform="matrix(15.0713,0,0,8.83085,-26214.8,-266.329)">
                        <circle cx="1777.92" cy="65.183" r="3.268" style="fill:none;stroke:rgb(189,3,71);stroke-width:0.37px;"/>
                    </g>
                    <g>
                        <g transform="matrix(8.12698,0,0,4.7619,-13994.7,0)">
                            <path d="M1793.65,54.903C1796.04,42.214 1809.66,39.845 1810.91,51.632" style="fill:none;stroke:rgb(189,3,71);stroke-width:0.69px;"/>
                        </g>
                        <g transform="matrix(8.12698,0,0,4.7619,-13994.7,0)">
                            <path d="M1792.26,72.802L1793.14,75.241C1802.99,81.563 1827.22,77.566 1827.34,65.338C1827.44,54.574 1817.82,53.849 1813.24,55.045C1814.99,47.584 1809.88,39.144 1802.41,40.997C1791.92,43.596 1790.31,56.363 1790.31,56.363" style="fill:none;stroke:rgb(189,3,71);stroke-width:0.69px;"/>
                        </g>
                    </g>
                    <g transform="matrix(-1,0,0,1,1030.15,0.708895)">
                        <g transform="matrix(8.12698,0,0,4.7619,-13994.7,0)">
                            <path d="M1793.65,54.903C1796.04,42.214 1809.66,39.845 1810.91,51.632" style="fill:none;stroke:rgb(189,3,71);stroke-width:0.69px;"/>
                        </g>
                        <g transform="matrix(8.12698,0,0,4.7619,-13994.7,0)">
                            <path d="M1792.26,72.802L1793.14,75.241C1802.99,81.563 1827.22,77.566 1827.34,65.338C1827.44,54.574 1817.82,53.849 1813.24,55.045C1814.99,47.584 1809.88,39.144 1802.41,40.997C1791.92,43.596 1790.31,56.363 1790.31,56.363" style="fill:none;stroke:rgb(189,3,71);stroke-width:0.69px;"/>
                        </g>
                    </g>
                    <g transform="matrix(8.12698,0,0,4.7619,-13994.7,0)">
                        <path d="M1761.43,16.248C1746.02,16.134 1744.87,36.575 1757.44,40.039C1754.06,43.032 1752.56,46.384 1752.59,50.027C1739.71,51.565 1732.96,66.563 1745.45,77.062C1754.17,84.399 1769.8,85.451 1781.38,78.366C1782.32,76.953 1782.88,75.768 1783.34,74.031C1784.31,73.659 1785.01,73.012 1785.5,72.153C1786.06,72.98 1786.78,73.569 1787.6,74.006C1787.6,74.006 1788.84,77.849 1789.69,78.494C1797.08,84.071 1821.12,86.571 1829.29,73.133C1838.6,57.829 1822.52,49.467 1818.57,49.91C1817.91,45.517 1816.17,42.414 1813.53,40.415L1817.8,40.276C1820.43,39.531 1821.61,37.981 1821.9,35.935L1821.85,31.593C1821.82,30.848 1821.54,30.273 1821.12,29.788L1821.07,26.423C1821.49,25.973 1821.71,25.36 1821.73,24.577L1821.65,20.357C1821.1,18.174 1819.73,16.803 1817.51,16.485L1808.52,16.485" style="fill:none;stroke:rgb(14,219,252);stroke-width:0.69px;"/>
                    </g>
                    <g transform="matrix(8.12698,0,0,4.7619,-13994.7,0)">
                        <path d="M1777.8,43.171L1793.06,43.171C1789.27,47.459 1788.24,52.55 1786.74,57.51C1786.29,58.989 1784.7,58.944 1784.36,57.51C1782.89,51.331 1780.93,46.123 1777.8,43.171Z" style="fill:none;stroke:rgb(14,219,252);stroke-width:0.69px;"/>
                    </g>
                    <g transform="matrix(8.12698,0,0,4.7619,-13994.7,0)">
                        <path d="M1782.85,45.801L1788.08,45.801C1787.02,47.576 1786.03,49.837 1785.51,52.095C1784.78,49.615 1783.85,47.321 1782.85,45.801Z" style="fill:none;stroke:rgb(252,255,255);stroke-width:0.69px;"/>
                    </g>
                </g>
                <g transform="matrix(0.957828,0,0,0.957828,17.6644,5.63716)">
                    <g transform="matrix(7.77802,0,0,4.55743,-13366.8,5.73967)">
                        <path d="M1753.67,21.332L1751.75,21.332L1751.75,32.248C1751.75,34.298 1753.43,35.963 1755.5,35.963C1756.6,35.963 1757.6,35.489 1758.28,34.736C1758.97,35.489 1759.96,35.963 1761.07,35.963C1763.14,35.963 1764.82,34.298 1764.82,32.248L1764.82,21.332L1762.9,21.332L1762.9,31.809C1762.9,32.832 1762.07,33.663 1761.04,33.663C1760.02,33.663 1759.19,32.832 1759.19,31.809L1759.19,21.332L1757.38,21.332L1757.38,31.809C1757.38,32.832 1756.55,33.663 1755.52,33.663C1754.5,33.663 1753.67,32.832 1753.67,31.809L1753.67,21.332Z" style="fill:rgb(252,255,255);"/>
                    </g>
                    <g transform="matrix(7.77802,0,0,4.55743,-13366.8,5.73967)">
                        <path d="M1775.04,23.06L1775.04,21.209L1767.13,21.209L1767.13,35.963L1775.04,35.963L1775.04,33.8L1769.04,33.8L1769.04,29.366L1775.04,29.366L1775.04,27.493L1769.04,27.493L1769.04,23.06L1775.04,23.06Z" style="fill:rgb(252,255,255);"/>
                    </g>
                    <g transform="matrix(7.77802,0,0,4.55743,-13366.8,5.73967)">
                        <path d="M1777.32,35.857L1780.25,35.857C1783.12,35.857 1785.45,33.524 1785.45,30.65C1785.45,28.676 1784.35,26.957 1782.73,26.074C1783.17,25.569 1783.43,24.913 1783.43,24.195C1783.43,22.605 1782.14,21.314 1780.55,21.314L1777.32,21.314L1777.32,35.857ZM1779.3,27.194L1779.3,33.712L1780.21,33.712C1782.01,33.712 1783.47,32.252 1783.47,30.453C1783.47,28.654 1782.01,27.194 1780.21,27.194L1779.3,27.194ZM1779.3,22.9L1779.3,25.4L1780.22,25.4C1780.91,25.4 1781.47,24.84 1781.47,24.15C1781.47,23.461 1780.91,22.9 1780.22,22.9L1779.3,22.9Z" style="fill:rgb(252,255,255);"/>
                    </g>
                    <g transform="matrix(7.77802,0,0,4.55743,-13366.8,5.73967)">
                        <path d="M1816.03,32.837L1816.03,20.309L1814.02,20.309L1814.02,34.861L1821.14,34.861L1821.14,32.837L1816.03,32.837Z" style="fill:rgb(252,255,255);"/>
                    </g>
                    <g transform="matrix(7.77802,0,0,4.55743,-13366.8,5.73967)">
                        <path d="M1795.74,20.179C1797.9,20.194 1799.86,21.135 1801.21,22.627L1799.76,24.019C1798.76,22.91 1797.32,22.212 1795.71,22.212C1792.71,22.212 1790.27,24.648 1790.27,27.649C1790.27,30.65 1792.71,33.086 1795.71,33.086C1796.9,33.086 1798,32.703 1798.89,32.054L1798.89,27.697L1800.93,27.697L1800.85,33.042C1799.51,34.328 1797.69,35.119 1795.68,35.119C1791.56,35.119 1788.21,31.772 1788.21,27.649C1788.21,23.526 1791.56,20.179 1795.68,20.179L1795.74,20.179Z" style="fill:rgb(252,255,255);"/>
                    </g>
                    <g transform="matrix(7.77802,0,0,4.55743,-13366.8,5.73967)">
                        <path d="M1803.49,20.375L1807.25,20.375C1809.98,20.375 1812.2,22.591 1812.2,25.321C1812.2,27.357 1810.97,29.107 1809.2,29.866L1812.42,34.861L1809.95,34.861L1807.11,30.267L1805.54,30.267L1805.54,34.861L1803.49,34.861L1803.49,20.375ZM1805.54,28.302L1807.19,28.302C1808.84,28.302 1810.17,26.966 1810.17,25.321C1810.17,23.676 1808.84,22.34 1807.19,22.34L1805.54,22.34L1805.54,28.302Z" style="fill:rgb(252,255,255);"/>
                    </g>
                </g>
                <g transform="matrix(1,0,0,1,5.979,0)">
                    <g transform="matrix(8.12698,0,0,4.7619,-13994.7,0)">
                        <path d="M1774.29,11.64L1774.29,10.267L1768.84,10.267L1768.84,14.227L1772.88,14.227L1772.88,16.973L1768.84,16.973L1768.84,18.394L1774.17,18.394L1774.17,13.035L1770.15,13.035L1770.15,11.64L1774.29,11.64Z" style="fill:rgb(189,3,71);"/>
                    </g>
                    <g transform="matrix(8.12698,0,0,4.7619,-13994.7,0)">
                        <path d="M1776.87,14.254L1776.87,11.649L1775.5,11.649L1775.5,18.351L1780.78,18.351L1780.78,16.946L1776.8,16.946L1776.8,15.608L1780.78,15.608L1780.78,14.254L1776.87,14.254Z" style="fill:rgb(189,3,71);"/>
                    </g>
                    <g transform="matrix(8.12698,0,0,4.7619,-13994.7,0)">
                        <path d="M1786.16,11.584L1783.35,11.584L1783.35,12.908L1782.1,12.908L1782.1,16.907L1783.35,16.907L1783.35,18.394L1786.16,18.394L1786.16,16.907L1787.48,16.907L1787.48,12.908L1786.16,12.908L1786.16,16.907L1783.35,16.907L1783.35,12.908L1786.16,12.908L1786.16,11.584Z" style="fill:rgb(189,3,71);"/>
                    </g>
                    <g transform="matrix(8.12698,0,0,4.7619,-13994.7,0)">
                        <path d="M1794.02,12.943L1794.02,11.649L1788.69,11.649L1788.69,18.351L1790.02,18.351L1790.02,12.943L1794.02,12.943Z" style="fill:rgb(189,3,71);"/>
                    </g>
                    <g transform="matrix(8.12698,0,0,4.7619,-13994.7,0)">
                        <path d="M1800.66,15.584L1800.66,11.584L1795.31,11.584L1795.31,18.351L1800.66,18.351L1800.66,16.968L1796.69,16.968L1796.69,15.584L1800.66,15.584ZM1799.35,12.912L1796.69,12.912L1796.69,14.294L1799.35,14.294L1799.35,12.912Z" style="fill:rgb(189,3,71);"/>
                    </g>
                </g>
            </g>
        </g>
    </g>
</svg>
